<?xml version="1.0" standalone="no"?>
<!DOCTYPE svg PUBLIC "-//W3C//DTD SVG 20010904//EN"
 "http://www.w3.org/TR/2001/REC-SVG-20010904/DTD/svg10.dtd">
<svg version="1.0" xmlns="http://www.w3.org/2000/svg"
 width="255.000000pt" height="255.000000pt" viewBox="0 0 255.000000 255.000000"
 preserveAspectRatio="xMidYMid meet">
<metadata>
Created by potrace 1.14, written by Peter Selinger 2001-2017
</metadata>
<g transform="translate(0.000000,255.000000) scale(0.100000,-0.100000)"
fill="#000000" stroke="none">
<path d="M1169 2217 c-24 -25 -71 -76 -104 -114 -73 -82 -127 -142 -188 -208
-26 -27 -47 -53 -47 -57 0 -4 -13 -16 -29 -28 -27 -19 -34 -19 -78 -8 -26 6
-54 18 -61 25 -7 7 -18 13 -24 13 -6 0 -20 7 -30 17 -35 32 -11 -49 36 -118
34 -52 78 -86 116 -92 16 -3 26 -11 28 -25 2 -14 11 -22 23 -22 16 0 19 -7 19
-54 l0 -54 -40 -4 c-22 -2 -40 0 -40 5 0 5 -8 7 -17 5 -12 -2 -17 -14 -17 -43
-1 -39 -2 -40 -36 -41 -40 -1 -122 28 -162 57 -27 19 -28 19 -28 0 0 -65 98
-193 156 -203 10 -1 24 -12 31 -23 6 -11 17 -20 25 -20 17 0 24 -105 8 -115
-7 -4 -28 -4 -48 1 -20 4 -39 6 -42 3 -3 -3 -5 -24 -5 -47 l0 -42 -100 1 c-92
0 -105 3 -165 33 -35 18 -68 37 -72 44 -4 6 -10 8 -13 5 -19 -18 55 -162 104
-206 34 -29 86 -52 122 -52 23 0 28 -5 31 -28 2 -15 9 -28 16 -28 6 -1 15 -2
20 -3 4 0 7 -94 7 -208 l0 -208 -60 -3 c-78 -4 -88 -8 -82 -32 6 -24 -14 -42
-45 -40 -13 1 -42 2 -66 1 l-43 -1 3 -47 3 -48 935 0 935 0 0 50 0 49 -72 -2
-73 -2 0 35 0 35 -75 0 -75 0 2 213 c3 192 5 212 20 209 12 -2 18 6 20 25 3
24 8 29 43 34 88 12 152 72 210 196 29 62 20 64 -61 21 -72 -38 -80 -40 -175
-43 -65 -2 -102 1 -106 9 -12 18 -12 40 -2 53 19 22 1 30 -51 25 l-51 -5 3 57
c2 31 7 55 12 54 5 -2 12 7 17 20 5 14 20 25 39 28 16 4 30 10 30 15 0 5 4 9
10 9 19 0 63 55 96 118 35 70 36 93 1 68 -49 -35 -108 -57 -154 -59 l-48 -2 0
40 c1 48 -9 57 -41 40 -13 -7 -35 -10 -49 -7 -23 4 -25 9 -25 58 0 39 4 54 14
54 7 0 16 8 18 18 3 10 22 23 45 30 50 15 102 71 138 147 32 66 29 84 -7 56
-14 -12 -33 -21 -42 -21 -9 0 -16 -4 -16 -9 0 -5 -23 -14 -51 -21 l-50 -12
-42 45 c-23 25 -69 76 -102 113 -33 37 -71 79 -85 94 -67 72 -186 204 -191
212 -4 6 -26 -10 -50 -35z"/>
</g>
</svg>
